/* XPM */
static char *hborder[] = {
/* width height num_colors chars_per_pixel */
"    45     4        3            1",
/* colors */
"a c None",
". c #000000",
"# c #9e9e9e",
/* pixels */
"aaaa.#######################################.",
"aa..######################################..a",
"a.######################################..aaa",
".........................................aaaa"
};