/* XPM */
static char *vborder[] = {
/* width height num_colors chars_per_pixel */
"     5    44        3            1",
/* colors */
"a c None",
". c #000000",
"# c #9e9e9e",
/* pixels */
"aaaa.",
"aa..#",
"..###",
".####",
".####",
".####",
".####",
".####",
".####",
".####",
".####",
".####",
".####",
".####",
".####",
".####",
".####",
".####",
".####",
".####",
".####",
".####",
".####",
".####",
".####",
".####",
".####",
".####",
".####",
".####",
".####",
".####",
".####",
".####",
".####",
".####",
".####",
".####",
".####",
".####",
".##..",
".#.aa",
"...aa",
".aaaa"
};