<?xml version="1.0" encoding="UTF-8" standalone="no"?>
<!DOCTYPE svg PUBLIC "-//W3C//DTD SVG 20010904//EN"
"http://www.w3.org/TR/2001/REC-SVG-20010904/DTD/svg10.dtd">
<!-- Created with Inkscape (http://www.inkscape.org/) -->
<svg
   id="svg1"
   sodipodi:version="0.32"
   inkscape:version="0.38.1"
   width="380.28000pt"
   height="379.89000pt"
   sodipodi:docname="chip-100-2svg.svg"
   xmlns="http://www.w3.org/2000/svg"
   xmlns:inkscape="http://www.inkscape.org/namespaces/inkscape"
   xmlns:sodipodi="http://sodipodi.sourceforge.net/DTD/sodipodi-0.dtd"
   xmlns:xml="http://www.w3.org/XML/1998/namespace"
   xmlns:xlink="http://www.w3.org/1999/xlink"
   sodipodi:docbase="/home/mccannwj/SVG">
  <defs
     id="defs3" />
  <sodipodi:namedview
     id="base"
     pagecolor="#ffffff"
     bordercolor="#666666"
     borderopacity="1.0"
     inkscape:pageopacity="1.0000000"
     inkscape:pageshadow="2"
     inkscape:zoom="0.99419194"
     inkscape:cx="297.63779"
     inkscape:cy="420.94487"
     inkscape:window-width="1081"
     inkscape:window-height="963"
     inkscape:window-x="310"
     inkscape:window-y="31"
     showborder="true" />
  <g
     id="g831"
     transform="translate(-137.0460,-310.5537)">
    <path
       sodipodi:type="arc"
       style="fill:#000000;fill-opacity:1.0000000;fill-rule:evenodd;stroke:#7d7d7d;stroke-width:2.5000000;stroke-opacity:0.76870745;stroke-dasharray:none;"
       id="path825"
       sodipodi:cx="375.80530"
       sodipodi:cy="550.28632"
       sodipodi:rx="234.50250"
       sodipodi:ry="234.50250"
       d="M 610.30780 550.28632 A 234.50250 234.50250 0 1 0 141.30280,550.28632 A 234.50250 234.50250 0 1 0 610.30780 550.28632 z"
       transform="translate(-3.430170e-5,4.535355e-6)" />
    <path
       sodipodi:type="arc"
       style="fill-opacity:1.0000000;fill-rule:evenodd;stroke:#000000;stroke-width:2.5000000;stroke-opacity:0.19047619;fill:#ffffff;"
       id="path826"
       sodipodi:cx="409.25195"
       sodipodi:cy="561.18469"
       sodipodi:rx="137.92055"
       sodipodi:ry="137.92055"
       d="M 547.17250 561.18469 A 137.92055 137.92055 0 1 0 271.33141,561.18469 A 137.92055 137.92055 0 1 0 547.17250 561.18469 z"
       transform="matrix(1.021602,0.000000,0.000000,1.021602,-41.91178,-21.89395)" />
    <text
       xml:space="preserve"
       style="font-size:96.000000;font-weight:bold;fill-opacity:1.0000000;stroke-width:1.0000000pt;font-family:Bitstream Vera Sans;fill:#000000;font-style:normal;font-stretch:normal;font-variant:normal;text-anchor:middle;writing-mode:lr;"
       x="376.44707"
       y="586.98975"
       id="text965"
       sodipodi:linespacing="100%"><tspan
         id="tspan966"
         style="fill:#000000;fill-opacity:1.0000000;">100</tspan></text>
    <path
       style="fill:#ffffff;fill-opacity:1.0000000;fill-rule:evenodd;stroke:#666666;stroke-width:1.1338650pt;stroke-opacity:0.24503312;"
       d="M 453.34375 329.00000 L 442.75000 347.50000 C 452.22546 350.61799 461.41270 354.35897 470.25000 358.71875 L 480.65625 340.56250 C 471.85242 336.14899 462.73596 332.29429 453.34375 329.00000 z M 274.65625 338.68750 C 265.69909 342.97988 257.09694 347.86634 248.81250 353.21875 L 261.50000 370.56250 C 269.80757 365.23743 278.42804 360.33753 287.46875 356.18750 L 274.65625 338.68750 z M 504.31250 354.21875 L 493.90625 372.40625 C 502.20213 377.92171 509.98164 384.09589 517.40625 390.68750 L 528.06250 372.06250 C 520.54057 365.62853 512.61240 359.67273 504.31250 354.21875 z M 226.43750 369.53125 C 218.78984 375.85925 211.59911 382.70354 204.81250 389.93750 L 217.84375 407.71875 C 224.49123 400.32234 231.51347 393.28145 239.12500 386.87500 L 226.43750 369.53125 z M 606.84375 510.37500 L 585.56250 510.40625 C 587.36987 520.02832 588.56584 529.84507 589.03125 539.87500 L 610.03125 539.84375 C 609.59206 529.84041 608.49982 520.01569 606.84375 510.37500 z M 166.71875 511.06250 L 144.62500 511.09375 C 142.99818 520.74476 141.93919 530.58197 141.53125 540.59375 L 163.34375 540.56250 C 163.77767 530.52316 164.94042 520.69600 166.71875 511.06250 z M 610.00000 562.21875 L 588.90625 562.25000 C 588.33287 572.27410 587.03893 582.11171 585.12500 591.71875 L 606.56250 591.68750 C 608.28357 582.04622 609.49734 572.22824 610.00000 562.21875 z M 163.53125 562.93750 L 141.65625 562.96875 C 142.19085 572.97708 143.40347 582.79988 145.15625 592.43750 L 167.34375 592.40625 C 165.39854 582.80561 164.13685 572.95780 163.53125 562.93750 z M 533.87500 692.81250 C 527.20615 700.16616 520.15740 707.16764 512.53125 713.53125 L 525.28125 730.93750 C 532.91101 724.61581 540.10362 717.78653 546.87500 710.56250 L 533.87500 692.81250 z M 235.53125 709.65625 L 224.34375 729.18750 C 231.87918 735.57436 239.81801 741.49837 248.12500 746.90625 L 259.06250 727.81250 C 250.76484 722.33648 242.96421 716.20656 235.53125 709.65625 z M 490.09375 729.75000 C 481.74188 735.05453 473.08530 739.91098 464.00000 744.03125 L 477.03125 761.84375 C 486.00103 757.54074 494.61175 752.61616 502.90625 747.25000 L 490.09375 729.75000 z M 282.75000 741.40625 L 271.84375 760.46875 C 280.67843 764.84989 289.82871 768.68093 299.25000 771.93750 L 310.34375 752.56250 C 300.84102 749.47393 291.61555 745.74245 282.75000 741.40625 z "
       id="path1830" />
  </g>
</svg>
