/* XPM */
static char *bsd[] = {
/* width height ncolors chars_per_pixel */
"28 24 2 1",
/* colors */
"  c #000000",
". c None",
/* pixels */
"............................",
"...........  ...............",
"...........  ....... .......",
"............     ...  ......",
"...........        .  ......",
"...........           ......",
"...........          .......",
"...... ....        .........",
".... .. ..         .........",
"..... . ..         .........",
"... ..   ..       ..........",
"....  .  ...     ...........",
".........  ..    ...........",
".........   .    ...........",
"..........       ...........",
"............     ...........",
"...........      ...........",
"...........      ...........",
"...........       ..........",
"............         .......",
"...........      ...    ....",
"........         ....... ...",
"........   .     .....  ....",
".............  ............."
};
