/* XPM */
static char * bsd_xpm[] = {
"28 24 33 1",
" 	c None",
".	c #382C32",
"+	c #323E5C",
"@	c #3E6E94",
"#	c #7891A2",
"$	c #9EAAB4",
"%	c #C3C2C6",
"&	c #DBD7D8",
"*	c #981C28",
"=	c #E6E4E4",
"-	c #7E2834",
";	c #96454E",
">	c #9C6F75",
",	c #EAEAEA",
"'	c #918488",
")	c #6A2834",
"!	c #6F4C56",
"~	c #6A5D64",
"{	c #EFEEEC",
"]	c #424E67",
"^	c #BFAFB1",
"/	c #C49498",
"(	c #686C7C",
"_	c #4D2C35",
":	c #A09AA0",
"<	c #F6F5F4",
"[	c #9A303C",
"}	c #584C56",
"|	c #80757E",
"1	c #5C2A34",
"2	c #B67379",
"3	c #FEFEFC",
"4	c #523944",
"3333333333333333333333333333",
"3333333333{<3333%:3333333333",
"333333333=><33<{<|><33333333",
"333333333|>3=|!4!}-^33333333",
"3333333334-2!11;;2;233333333",
"333333333~_)))[&=^^^33333333",
"333333333&4__1[==/$:33333333",
"3333333333&!_)*&$]4!,3333333",
"33333333333'_1-2:_**/=<33333",
"33333333333^_.***))-:$,33333",
"33333333333<(__1--!^%:^<3333",
"333333333333<~__1|%[||$$3333",
"3333333333333!*-*||1>3333333",
"333333333333=411*)__>3333333",
"333333333333%__1**4^<3333333",
"333333333333=____1'333333333",
"333333333333&..._-2333333333",
"333333333333:..1)-%333333333",
"33333333333^_____1,333333333",
"33333333=^~}:}_44!''%&{33333",
"33333%'~~}('~_114($##$$,3333",
"3333&:={&'}..+]]]@#$#%&33333",
"333333333=$|]]]}|#%=<3333333",
"3333333333333333333333333333"};
