/* XPM */
static char * redhat_xpm[] = {
"28 24 33 1",
" 	c None",
".	c #050304",
"+	c #2F2F2E",
"@	c #515151",
"#	c #220604",
"$	c #838384",
"%	c #9C9A9A",
"&	c #570F0F",
"*	c #AEAEAF",
"=	c #6F1214",
"-	c #BABABC",
";	c #C3C3C1",
">	c #8B1519",
",	c #D6D6D7",
"'	c #A21A1C",
")	c #DEDEDC",
"!	c #E2E2E4",
"~	c #AF1C1C",
"{	c #AE2A2C",
"]	c #E6E6E4",
"^	c #B91E22",
"/	c #EAEAEC",
"(	c #1E0907",
"_	c #777574",
":	c #BE1E24",
"<	c #141414",
"[	c #5E3434",
"}	c #C21E24",
"|	c #EEEEEC",
"1	c #6E5254",
"2	c #D52224",
"3	c #3C090B",
"4	c #FEFEFC",
"4444444444444444444444444444",
"4444444444)-%$$%-)4444444444",
"44444444!$+<....<+$]44444444",
"4444444*+.#&333&3#.+*4444444",
"44444|%<..'2222:=>#.<%444444",
"44444*<..#~'^}22}2=..<*44444",
"4444!+...&~&>'2222~...+!4444",
"4444$.#33=2}22222223...$4444",
"444)+3:223&>}222222=...+!444",
"444-<3222'3##&}2222'&#.<-444",
"444%..=222}'3#=2222}2}3.%444",
"444$..#=22222~~2222222>.$444",
"444$....[^222222222222=.$444",
"444%...<-%&~222222222'#.%444",
"444-++++*4,_3>~}}}}~=..<-444",
"444!-)/*@)4/_+1111[#...+!444",
"44444444/4444/!,]/$....$4444",
"44444444444444-$)4@.<.+/4444",
"444444444444444]|-+_,;,44444",
"4444444444444444)1-444444444",
"4444444444444444),4444444444",
"4444444444444444444444444444",
"4444444444444444444444444444",
"4444444444444444444444444444"};
