/* XPM */
static char * sgi_xpm[] = {
"28 24 33 1",
" 	c None",
".	c #020204",
"+	c #1E1E1E",
"@	c #4B4B4C",
"#	c #787878",
"$	c #949494",
"%	c #B3B3B4",
"&	c #BABABC",
"*	c #CCCCCD",
"=	c #D8D8D8",
"-	c #DEDEDC",
";	c #E2E2E4",
">	c #3F3F3E",
",	c #E6E6E4",
"'	c #6D6D6D",
")	c #ECECEC",
"!	c #151514",
"~	c #F2F2F4",
"{	c #F6F6F4",
"]	c #5B5B5C",
"^	c #333332",
"/	c #8B8B8C",
"(	c #9A9A9C",
"_	c #0B0B0C",
":	c #FEFEFC",
"<	c #A2A2A0",
"[	c #282827",
"}	c #838384",
"|	c #ABABAC",
"1	c #C4C4C4",
"2	c #646464",
"3	c #464644",
"4	c #525254",
"::::::::::::::::::::::::::::",
"::::::::::::::::::::::::::::",
":::::::::::::::::::::<])::::",
":::::::::::::::::&=::^.(::::",
":::::::::::::::1+.@::1}{::::",
":::,&1~::::::*%!!(~:~~~:{{::",
"::#...+|:::1[...@{:-+++&%$$:",
":&.+/}!.~:=__'$^.#:,]!.%;;=:",
":#.(::-(::'.}::)__)::>.%::::",
":$.]{:::::@.%:::^.=::>.%::::",
":,+.+'1:::>.%:::[.*::>.%::::",
"::-2!..'::4.<:::+.-::>.%::::",
"::::)|+.%:(.^-~$.^:::>.%::::",
"::,:::<.'::+._+.!*:::>.%::::",
":4+=::}.#:=.>@>'-::::@.(::::",
":/.+}2_.=:#.1::::::::$.+<:::",
"::}_..[%::[.@@@4#=:::{'!>:::",
":::)1={:::/4..>3_!;::::~{:::",
":::::::::::1.'::<./:::::::::",
":::::::::::&.#::%.}:::::::::",
":::::::::::~+.@]__=:::::::::",
"::::::::::::-'3>]1::::::::::",
"::::::::::::::::::::::::::::",
"::::::::::::::::::::::::::::"};
