/* XPM */
static char * slackware_xpm[] = {
"28 24 11 1",
" 	c None",
".	c #000000",
"+	c #555555",
"@	c #1C1C1C",
"#	c #8D8D8D",
"$	c #E2E2E2",
"%	c #FFFFFF",
"&	c #AAAAAA",
"*	c #383838",
"=	c #C6C6C6",
"-	c #717171",
"............................",
"............................",
"............................",
"..................+@........",
"..........@#$%%$#+%&........",
".........*%%%%%%%%%&........",
".........=%&*..@-$%&........",
".........%%......-%&........",
".........=%&+.....+.........",
".........*$%%%%%%$#@........",
"..........@#&$%%%%%$........",
".........&&......@$%........",
".........&%+......=%........",
".........&%%&+++-=%$........",
".........&%$%%%%%%$+........",
".........&&.*#&&&+..........",
"....%%......................",
"....%%......................",
"....%%......................",
"....%%%%%%%%%%%%%%%%%%%%....",
"............................",
"............................",
"............................",
"............................"};
